IKResults
version=1
nRows=4
nColumns=63
inDegrees=yes

Units are S.I. units (second, meters, Newtons, ...)
If the header above contains a line with 'inDegrees', this indicates whether rotational values are in degrees (yes) or radians (no).

endheader
time	pelvis_tilt	pelvis_list	pelvis_rotation	pelvis_tx	pelvis_ty	pelvis_tz	hip_flexion_r	hip_adduction_r	hip_rotation_r	knee_angle_r	knee_angle_r_beta	ankle_angle_r	subtalar_angle_r	mtp_angle_r	hip_flexion_l	hip_adduction_l	hip_rotation_l	knee_angle_l	knee_angle_l_beta	ankle_angle_l	subtalar_angle_l	mtp_angle_l	L5_S1_Flex_Ext	L5_S1_Lat_Bending	L5_S1_axial_rotation	L4_L5_Flex_Ext	L4_L5_Lat_Bending	L4_L5_axial_rotation	L3_L4_Flex_Ext	L3_L4_Lat_Bending	L3_L4_axial_rotation	L2_L3_Flex_Ext	L2_L3_Lat_Bending	L2_L3_axial_rotation	L1_L2_Flex_Ext	L1_L2_Lat_Bending	L1_L2_axial_rotation	L1_T12_Flex_Ext	L1_T12_Lat_Bending	L1_T12_axial_rotation	Abs_r3	Abs_r2	Abs_r1	Abs_t1	Abs_t2	neck_flexion	neck_bending	neck_rotation	arm_flex_r	arm_add_r	arm_rot_r	elbow_flex_r	pro_sup_r	wrist_flex_r	wrist_dev_r	arm_flex_l	arm_add_l	arm_rot_l	elbow_flex_l	pro_sup_l	wrist_flex_l	wrist_dev_l
      4.03333333	     55.16985475	      9.86573165	      5.08947518	     -0.61466738	      0.33413683	     -0.27057998	     68.81427312	    -41.74490377	     -1.00996149	     94.40109575	      1.64760994	    -20.42196844	    -19.13583458	      0.00000000	     62.68561923	    -11.58134509	     -1.33113145	     89.76317087	      1.56666288	    -26.35865888	    -19.64920970	      0.00000000	    -11.09569817	     -0.60576101	     -0.93781832	    -20.60582106	     -0.80566214	     -0.99643196	    -18.22912252	     -1.47284732	     -0.99643196	    -12.68127343	     -1.47284732	     -0.82059103	    -10.30346532	     -1.23526785	     -0.76197738	     -6.34008193	     -0.93832380	     -0.70336374	    -79.25546243	     -6.85248969	     -5.21586412	      0.00000000	      0.00000000	     28.55886302	    -15.87186880	    -44.21602843	     15.56079862	    -18.40137279	    -24.33200740	     29.95636279	     89.99559364	      0.00000000	      0.00000000	     23.96725132	    -27.59709822	      5.20631071	     39.79668705	     89.99559364	      0.00000000	      0.00000000
      4.06666667	     56.19612433	      9.50923054	      5.05658319	     -0.61386188	      0.33595083	     -0.27009154	     67.18947444	    -40.86946394	     -0.82885014	     94.69839823	      1.65279885	    -19.51637091	    -19.06431157	      0.00000000	     61.75728666	    -11.98712155	     -0.96234181	     90.14255694	      1.57328441	    -25.82462722	    -19.64925187	      0.00000000	    -11.22965711	     -0.56902597	     -0.88609107	    -20.85459623	     -0.75680454	     -0.94147177	    -18.44920367	     -1.38352975	     -0.94147177	    -12.83437512	     -1.38352975	     -0.77532969	    -10.42785960	     -1.16035776	     -0.71994900	     -6.41662608	     -0.88142123	     -0.66456831	    -80.21231781	     -6.43693561	     -4.92817273	      0.00000000	      0.00000000	     28.55872576	    -15.15651252	    -44.16953651	     15.51562360	    -18.43081345	    -24.53298545	     30.03719366	     89.99559364	      0.00000000	      0.00000000	     24.04189044	    -27.59802366	      4.74911744	     40.38536738	     89.99559364	      0.00000000	      0.00000000
      4.10000000	     56.99348488	      9.13192194	      5.12081753	     -0.61325188	      0.33733351	     -0.26988167	     65.90680239	    -40.02278174	     -0.59823485	     94.96490089	      1.65745019	    -19.08887558	    -19.05040888	      0.00000000	     61.13630770	    -12.31702102	     -0.55076627	     90.47330725	      1.57905710	    -25.61600126	    -19.65124321	      0.00000000	    -11.33546575	     -0.51930224	     -0.83068313	    -21.05109344	     -0.69067198	     -0.88260083	    -18.62303668	     -1.26263147	     -0.88260083	    -12.95530380	     -1.26263147	     -0.72684774	    -10.52611349	     -1.05896113	     -0.67493004	     -6.47708513	     -0.80439917	     -0.62301235	    -80.96809830	     -5.87445081	     -4.62001037	      0.00000000	      0.00000000	     28.55824392	    -15.01248730	    -44.14483345	     15.49635746	    -18.50915220	    -24.73341306	     29.94998432	     89.99559364	      0.00000000	      0.00000000	     24.26203703	    -27.38817116	      4.15904688	     40.60037704	     89.99559364	      0.00000000	      0.00000000
      4.13333333	     57.44657498	      8.85265258	      5.22750781	     -0.61254219	      0.33811350	     -0.26976826	     65.16932945	    -39.37881429	     -0.33030758	     95.21987390	      1.66190031	    -18.81334130	    -19.03576796	      0.00000000	     60.83586315	    -12.53118385	     -0.23689004	     90.72433207	      1.58343831	    -25.43089033	    -19.65197086	      0.00000000	    -11.39126830	     -0.48115177	     -0.78616243	    -21.15472436	     -0.63993185	     -0.83529758	    -18.71471469	     -1.16987241	     -0.83529758	    -13.01908054	     -1.16987241	     -0.68789212	    -10.57793175	     -0.98116469	     -0.63875697	     -6.50897071	     -0.74530409	     -0.58962182	    -81.36669036	     -5.44288505	     -4.37239956	      0.00000000	      0.00000000	     28.55745343	    -14.72153906	    -44.09416944	     15.34610388	    -18.58303541	    -24.85452519	     29.98703609	     89.99559364	      0.00000000	      0.00000000	     24.44193400	    -27.24679803	      3.81215675	     40.76342978	     89.99559364	      0.00000000	      0.00000000
